<svg width="152" height="23" viewBox="0 0 152 23" fill="none" xmlns="http://www.w3.org/2000/svg">
<path d="M13.392 22.82C13.1307 22.82 12.916 22.7547 12.748 22.624C12.5987 22.512 12.4587 22.3627 12.328 22.176L11.376 20.944C10.6853 21.168 9.89201 21.28 8.99601 21.28C6.34534 21.28 4.25468 20.636 2.72401 19.348C1.19334 18.06 0.381343 16.1653 0.28801 13.664C0.269343 13.1413 0.26001 12.3387 0.26001 11.256C0.26001 10.1733 0.269343 9.36133 0.28801 8.82C0.381343 6.356 1.20268 4.46133 2.75201 3.136C4.30134 1.792 6.38268 1.12 8.99601 1.12C11.6093 1.12 13.6907 1.792 15.24 3.136C16.7893 4.46133 17.6107 6.356 17.704 8.82C17.7413 9.90267 17.76 10.7147 17.76 11.256C17.76 11.816 17.7413 12.6187 17.704 13.664C17.592 15.9413 16.9107 17.724 15.66 19.012L17.732 21.952C17.788 22.064 17.816 22.1573 17.816 22.232V22.316C17.816 22.4467 17.76 22.5587 17.648 22.652C17.536 22.764 17.4053 22.82 17.256 22.82H13.392ZM8.99601 17.08C9.96668 17.08 10.7413 16.7907 11.32 16.212C11.8987 15.6147 12.2067 14.7093 12.244 13.496C12.2813 12.4133 12.3 11.6387 12.3 11.172C12.3 10.7053 12.2813 9.94933 12.244 8.904C12.2067 7.69067 11.8987 6.79467 11.32 6.216C10.7413 5.61867 9.96668 5.32 8.99601 5.32C8.02534 5.32 7.25068 5.61867 6.67201 6.216C6.09334 6.79467 5.78534 7.69067 5.74801 8.904C5.72934 9.42667 5.72001 10.1827 5.72001 11.172C5.72001 12.18 5.72934 12.9547 5.74801 13.496C5.78534 14.7093 6.09334 15.6147 6.67201 16.212C7.25068 16.7907 8.02534 17.08 8.99601 17.08Z" fill="#353E44"/>
<path d="M24.8396 21.28C23.197 21.28 21.8716 20.7293 20.8636 19.628C19.8556 18.5267 19.3516 16.968 19.3516 14.952V7.14C19.3516 6.93467 19.417 6.76667 19.5476 6.636C19.697 6.50533 19.865 6.44 20.0516 6.44H23.7756C23.981 6.44 24.149 6.50533 24.2796 6.636C24.429 6.76667 24.5036 6.93467 24.5036 7.14V14.784C24.5036 16.52 25.2783 17.388 26.8276 17.388C27.5743 17.388 28.153 17.164 28.5636 16.716C28.993 16.2493 29.2076 15.6053 29.2076 14.784V7.14C29.2076 6.93467 29.273 6.76667 29.4036 6.636C29.553 6.50533 29.7303 6.44 29.9356 6.44H33.6316C33.837 6.44 34.005 6.50533 34.1356 6.636C34.2663 6.76667 34.3316 6.93467 34.3316 7.14V20.3C34.3316 20.4867 34.2663 20.6547 34.1356 20.804C34.005 20.9347 33.837 21 33.6316 21H30.2156C30.0103 21 29.833 20.9347 29.6836 20.804C29.553 20.6733 29.4876 20.5053 29.4876 20.3V19.236C28.517 20.5987 26.9676 21.28 24.8396 21.28Z" fill="#353E44"/>
<path d="M37.0912 4.424C36.8858 4.424 36.7178 4.35867 36.5872 4.228C36.4565 4.07867 36.3912 3.90133 36.3912 3.696V1.092C36.3912 0.886665 36.4565 0.718665 36.5872 0.587999C36.7365 0.438665 36.9045 0.363998 37.0912 0.363998H40.5912C40.7965 0.363998 40.9645 0.438665 41.0952 0.587999C41.2445 0.718665 41.3192 0.886665 41.3192 1.092V3.696C41.3192 3.90133 41.2445 4.07867 41.0952 4.228C40.9645 4.35867 40.7965 4.424 40.5912 4.424H37.0912ZM37.0912 21C36.9045 21 36.7365 20.9347 36.5872 20.804C36.4565 20.6547 36.3912 20.4867 36.3912 20.3V7.14C36.3912 6.93467 36.4565 6.76667 36.5872 6.636C36.7365 6.50533 36.9045 6.44 37.0912 6.44H40.5912C40.7965 6.44 40.9645 6.50533 41.0952 6.636C41.2445 6.76667 41.3192 6.93467 41.3192 7.14V20.3C41.3192 20.5053 41.2445 20.6733 41.0952 20.804C40.9645 20.9347 40.7965 21 40.5912 21H37.0912Z" fill="#353E44"/>
<path d="M50.1683 21.28C48.0403 21.28 46.3136 20.72 44.9883 19.6C43.6816 18.4613 42.9816 16.884 42.8883 14.868L42.8603 13.748L42.8883 12.6C42.9629 10.584 43.6629 9.00667 44.9883 7.868C46.3136 6.72933 48.0403 6.16 50.1683 6.16C51.7923 6.16 53.1549 6.44933 54.2563 7.028C55.3576 7.60667 56.1789 8.29733 56.7203 9.1C57.2616 9.884 57.5509 10.6027 57.5883 11.256C57.6069 11.4613 57.5416 11.6387 57.3923 11.788C57.2429 11.9187 57.0656 11.984 56.8603 11.984H53.1083C52.9029 11.984 52.7443 11.9373 52.6323 11.844C52.5203 11.7507 52.4176 11.6013 52.3243 11.396C52.1189 10.8733 51.8483 10.4907 51.5123 10.248C51.1949 10.0053 50.7843 9.884 50.2803 9.884C48.8429 9.884 48.0963 10.836 48.0403 12.74L48.0123 13.804L48.0403 14.728C48.0589 15.6987 48.2549 16.4173 48.6283 16.884C49.0016 17.332 49.5523 17.556 50.2803 17.556C50.8216 17.556 51.2416 17.444 51.5403 17.22C51.8576 16.9773 52.1189 16.5853 52.3243 16.044C52.4176 15.8387 52.5203 15.6893 52.6323 15.596C52.7443 15.5027 52.9029 15.456 53.1083 15.456H56.8603C57.0469 15.456 57.2149 15.5213 57.3643 15.652C57.5136 15.7827 57.5883 15.9413 57.5883 16.128C57.5883 16.7067 57.3269 17.4067 56.8043 18.228C56.3003 19.0307 55.4883 19.74 54.3683 20.356C53.2483 20.972 51.8483 21.28 50.1683 21.28Z" fill="#353E44"/>
<path d="M59.5979 21C59.3926 21 59.2153 20.9347 59.0659 20.804C58.9353 20.6733 58.8699 20.5053 58.8699 20.3V1.82C58.8699 1.61467 58.9353 1.44667 59.0659 1.316C59.2153 1.18533 59.3926 1.12 59.5979 1.12H63.0139C63.2192 1.12 63.3873 1.18533 63.5179 1.316C63.6486 1.44667 63.7139 1.61467 63.7139 1.82V11.172L67.4379 6.916C67.4753 6.87867 67.5406 6.81333 67.6339 6.72C67.7459 6.62667 67.8579 6.56133 67.9699 6.524C68.0819 6.468 68.2219 6.44 68.3899 6.44H72.3379C72.5059 6.44 72.6459 6.50533 72.7579 6.636C72.8886 6.748 72.9539 6.89733 72.9539 7.084C72.9539 7.252 72.8886 7.40133 72.7579 7.532L67.8299 12.964L73.4579 19.936C73.5886 20.104 73.6539 20.244 73.6539 20.356C73.6539 20.5427 73.5886 20.7013 73.4579 20.832C73.3459 20.944 73.1966 21 73.0099 21H68.9499C68.7073 21 68.5206 20.9627 68.3899 20.888C68.2779 20.8133 68.1379 20.692 67.9699 20.524L63.7139 15.26V20.3C63.7139 20.4867 63.6486 20.6547 63.5179 20.804C63.3873 20.9347 63.2192 21 63.0139 21H59.5979Z" fill="#353E44"/>
<path d="M80.0961 21.28C78.5654 21.28 77.2868 21.0653 76.2601 20.636C75.2334 20.2067 74.4681 19.6933 73.9641 19.096C73.4788 18.4987 73.2361 17.9573 73.2361 17.472C73.2361 17.2853 73.3014 17.136 73.4321 17.024C73.5814 16.8933 73.7401 16.828 73.9081 16.828H77.2961C77.4081 16.828 77.5014 16.8653 77.5761 16.94C77.8934 17.1453 78.0708 17.2667 78.1081 17.304C78.4628 17.5653 78.7894 17.7707 79.0881 17.92C79.4054 18.0507 79.7788 18.116 80.2081 18.116C80.7121 18.116 81.1228 18.0227 81.4401 17.836C81.7761 17.6307 81.9441 17.3507 81.9441 16.996C81.9441 16.6973 81.8508 16.4547 81.6641 16.268C81.4961 16.0813 81.1601 15.904 80.6561 15.736C80.1708 15.5493 79.4241 15.3627 78.4161 15.176C75.1868 14.5227 73.5721 13.0293 73.5721 10.696C73.5721 9.93067 73.8148 9.20267 74.3001 8.512C74.8041 7.80267 75.5321 7.23333 76.4841 6.804C77.4548 6.37467 78.6121 6.16 79.9561 6.16C81.3188 6.16 82.4948 6.37467 83.4841 6.804C84.4921 7.21467 85.2574 7.71867 85.7801 8.316C86.3028 8.89467 86.5641 9.42667 86.5641 9.912C86.5641 10.08 86.4988 10.2293 86.3681 10.36C86.2561 10.4907 86.1161 10.556 85.9481 10.556H82.8681C82.7001 10.556 82.5694 10.5187 82.4761 10.444C82.2521 10.332 82.0281 10.192 81.8041 10.024C81.4681 9.8 81.1694 9.632 80.9081 9.52C80.6654 9.38933 80.3481 9.324 79.9561 9.324C79.4894 9.324 79.1254 9.42667 78.8641 9.632C78.6028 9.83733 78.4721 10.0987 78.4721 10.416C78.4721 10.696 78.5468 10.9293 78.6961 11.116C78.8641 11.284 79.1908 11.452 79.6761 11.62C80.1801 11.788 80.9361 11.9653 81.9441 12.152C83.7734 12.4693 85.0988 13.0387 85.9201 13.86C86.7601 14.6627 87.1801 15.6053 87.1801 16.688C87.1801 18.088 86.5548 19.208 85.3041 20.048C84.0721 20.8693 82.3361 21.28 80.0961 21.28Z" fill="#353E44"/>
<path d="M89.158 21C88.9714 21 88.8034 20.9347 88.654 20.804C88.5234 20.6547 88.458 20.4867 88.458 20.3V7.14C88.458 6.93467 88.5234 6.76667 88.654 6.636C88.8034 6.50533 88.9714 6.44 89.158 6.44H92.406C92.6114 6.44 92.7794 6.50533 92.91 6.636C93.0407 6.76667 93.106 6.93467 93.106 7.14V8.092C93.554 7.55067 94.1327 7.09333 94.842 6.72C95.5514 6.34667 96.354 6.16 97.25 6.16C99.3034 6.16 100.713 6.96267 101.478 8.568C101.926 7.85867 102.551 7.28 103.354 6.832C104.157 6.384 105.015 6.16 105.93 6.16C107.461 6.16 108.702 6.68267 109.654 7.728C110.625 8.75467 111.11 10.2947 111.11 12.348V20.3C111.11 20.4867 111.045 20.6547 110.914 20.804C110.783 20.9347 110.615 21 110.41 21H106.966C106.761 21 106.583 20.9347 106.434 20.804C106.303 20.6733 106.238 20.5053 106.238 20.3V12.544C106.238 11.6853 106.051 11.06 105.678 10.668C105.323 10.2573 104.838 10.052 104.222 10.052C103.643 10.052 103.167 10.2573 102.794 10.668C102.439 11.06 102.262 11.6853 102.262 12.544V20.3C102.262 20.4867 102.197 20.6547 102.066 20.804C101.935 20.9347 101.767 21 101.562 21H98.118C97.9127 21 97.7354 20.9347 97.586 20.804C97.4554 20.6733 97.39 20.5053 97.39 20.3V12.544C97.39 11.6853 97.2034 11.06 96.83 10.668C96.4567 10.2573 95.9714 10.052 95.374 10.052C94.7954 10.052 94.3194 10.2573 93.946 10.668C93.5727 11.06 93.386 11.676 93.386 12.516V20.3C93.386 20.4867 93.3207 20.6547 93.19 20.804C93.0594 20.9347 92.8914 21 92.686 21H89.158Z" fill="#353E44"/>
<path d="M117.437 21.28C116.448 21.28 115.543 21.0933 114.721 20.72C113.919 20.328 113.284 19.796 112.817 19.124C112.369 18.452 112.145 17.7147 112.145 16.912C112.145 15.6427 112.668 14.616 113.713 13.832C114.777 13.0293 116.233 12.4787 118.081 12.18L121.553 11.648V11.312C121.553 10.6213 121.413 10.1173 121.133 9.8C120.853 9.48267 120.377 9.324 119.705 9.324C119.332 9.324 119.014 9.38933 118.753 9.52C118.51 9.65067 118.231 9.84667 117.913 10.108C117.671 10.3133 117.456 10.4627 117.269 10.556C117.195 10.6867 117.101 10.752 116.989 10.752H113.741C113.555 10.752 113.396 10.696 113.265 10.584C113.153 10.4533 113.107 10.304 113.125 10.136C113.144 9.632 113.396 9.072 113.881 8.456C114.367 7.82133 115.104 7.28 116.093 6.832C117.083 6.384 118.305 6.16 119.761 6.16C122.076 6.16 123.793 6.67333 124.913 7.7C126.033 8.708 126.593 10.08 126.593 11.816V20.3C126.593 20.4867 126.528 20.6547 126.397 20.804C126.267 20.9347 126.099 21 125.893 21H122.449C122.263 21 122.095 20.9347 121.945 20.804C121.815 20.6547 121.749 20.4867 121.749 20.3V19.32C121.339 19.8987 120.769 20.3747 120.041 20.748C119.313 21.1027 118.445 21.28 117.437 21.28ZM118.837 17.976C119.658 17.976 120.321 17.7053 120.825 17.164C121.348 16.6227 121.609 15.8387 121.609 14.812V14.476L119.285 14.868C117.717 15.1667 116.933 15.7267 116.933 16.548C116.933 16.9773 117.111 17.3227 117.465 17.584C117.839 17.8453 118.296 17.976 118.837 17.976Z" fill="#353E44"/>
<path d="M129.219 21C129.032 21 128.864 20.9347 128.715 20.804C128.584 20.6547 128.519 20.4867 128.519 20.3V7.168C128.519 6.96267 128.584 6.79467 128.715 6.664C128.845 6.51467 129.013 6.44 129.219 6.44H132.635C132.84 6.44 133.008 6.51467 133.139 6.664C133.288 6.79467 133.363 6.96267 133.363 7.168V8.232C133.885 7.65333 134.492 7.21467 135.183 6.916C135.892 6.59867 136.676 6.44 137.535 6.44H138.795C139 6.44 139.168 6.50533 139.299 6.636C139.429 6.76667 139.495 6.93467 139.495 7.14V10.192C139.495 10.3787 139.429 10.5467 139.299 10.696C139.168 10.8267 139 10.892 138.795 10.892H135.967C135.22 10.892 134.641 11.0973 134.231 11.508C133.839 11.9187 133.643 12.4973 133.643 13.244V20.3C133.643 20.5053 133.568 20.6733 133.419 20.804C133.288 20.9347 133.12 21 132.915 21H129.219Z" fill="#353E44"/>
<path d="M147.949 21C143.992 21 142.013 19.1427 142.013 15.428V10.248H139.801C139.614 10.248 139.446 10.1827 139.297 10.052C139.166 9.90267 139.101 9.73467 139.101 9.548V7.14C139.101 6.93467 139.166 6.76667 139.297 6.636C139.446 6.50533 139.614 6.44 139.801 6.44H142.013V1.82C142.013 1.61467 142.078 1.44667 142.209 1.316C142.358 1.18533 142.526 1.12 142.713 1.12H146.157C146.362 1.12 146.53 1.18533 146.661 1.316C146.792 1.44667 146.857 1.61467 146.857 1.82V6.44H150.357C150.562 6.44 150.73 6.50533 150.861 6.636C151.01 6.76667 151.085 6.93467 151.085 7.14V9.548C151.085 9.75333 151.01 9.92133 150.861 10.052C150.73 10.1827 150.562 10.248 150.357 10.248H146.857V15.008C146.857 15.6613 146.978 16.156 147.221 16.492C147.464 16.828 147.856 16.996 148.397 16.996H150.609C150.814 16.996 150.982 17.0707 151.113 17.22C151.244 17.3507 151.309 17.5187 151.309 17.724V20.3C151.309 20.4867 151.244 20.6547 151.113 20.804C150.982 20.9347 150.814 21 150.609 21H147.949Z" fill="#353E44"/>
</svg>
